Coordinates
version=1
nRows=24
nColumns=38
inDegrees=no

Units are S.I. units (second, meters, Newtons, ...)
If the header above contains a line with 'inDegrees', this indicates whether rotational values are in degrees (yes) or radians (no).

endheader
time	pelvis_tilt	pelvis_list	pelvis_rotation	pelvis_tx	pelvis_ty	pelvis_tz	hip_flexion_r	hip_adduction_r	hip_rotation_r	knee_angle_r	ankle_angle_r	subtalar_angle_r	mtp_angle_r	hip_flexion_l	hip_adduction_l	hip_rotation_l	knee_angle_l	ankle_angle_l	subtalar_angle_l	mtp_angle_l	lumbar_extension	lumbar_bending	lumbar_rotation	arm_flex_r	arm_add_r	arm_rot_r	elbow_flex_r	pro_sup_r	wrist_flex_r	wrist_dev_r	arm_flex_l	arm_add_l	arm_rot_l	elbow_flex_l	pro_sup_l	wrist_flex_l	wrist_dev_l
0.51	2.99388	1.25673	-1.31694	0.581286	0.169192	0.963768	0.0482991	-0.144389	-0.208927	1.19593	-0.311438	0	0	-0.33057	-0.07108	-0.36522	0.299594	-0.197447	0	0	-0.449417	0.0628268	-0.28328	0.15176	-0.657936	1.22852	0.824316	0.333346	0	0	-0.2485	-0.420936	-0.103592	0.978638	1.56715	0	0
0.52	2.97572	1.25414	-1.29499	0.580661	0.177865	0.964311	0.0628332	-0.138435	-0.215556	1.16858	-0.291752	0	0	-0.345488	-0.0782514	-0.360425	0.291731	-0.194608	0	0	-0.452701	0.0725575	-0.285633	0.160431	-0.657974	1.23637	0.823046	0.330548	0	0	-0.236056	-0.422631	-0.103652	0.981675	1.56764	0	0
0.53	2.96068	1.25077	-1.27547	0.580027	0.186516	0.964748	0.0742963	-0.132853	-0.224107	1.13628	-0.273487	0	0	-0.361294	-0.0852357	-0.35638	0.283827	-0.192115	0	0	-0.456925	0.0817715	-0.288482	0.168863	-0.658217	1.2439	0.822538	0.327606	0	0	-0.223844	-0.424265	-0.104219	0.985833	1.56739	0	0
0.54	2.94856	1.24681	-1.25877	0.579419	0.195257	0.96509	0.0827392	-0.127689	-0.235206	1.09992	-0.257303	0	0	-0.378409	-0.0916834	-0.353109	0.275041	-0.190215	0	0	-0.461829	0.090223	-0.291297	0.176705	-0.658712	1.2509	0.822685	0.324283	0	0	-0.211982	-0.425725	-0.105089	0.990812	1.56678	0	0
0.55	2.94422	1.23519	-1.2457	0.578263	0.204174	0.965945	0.0788119	-0.126994	-0.299562	1.04836	-0.260877	0	0	-0.405338	-0.0991308	-0.349202	0.262739	-0.191019	0	0	-0.47453	0.100643	-0.297387	0.184963	-0.661582	1.25824	0.826819	0.319492	0	0	-0.201141	-0.427358	-0.106359	0.998434	1.56638	0	0
0.56	2.93722	1.22967	-1.23384	0.577827	0.212863	0.966223	0.0787176	-0.121617	-0.318814	0.993304	-0.262053	0	0	-0.425059	-0.104868	-0.345523	0.252278	-0.191155	0	0	-0.481854	0.108042	-0.299927	0.192429	-0.662287	1.26453	0.828428	0.314495	0	0	-0.189218	-0.42933	-0.106679	1.00484	1.56573	0	0
0.57	2.93077	1.22609	-1.22376	0.57764	0.221631	0.966259	0.078343	-0.115135	-0.330947	0.932077	-0.265825	0	0	-0.443085	-0.109645	-0.34301	0.242114	-0.190961	0	0	-0.487043	0.11375	-0.301162	0.198695	-0.661795	1.27004	0.828311	0.309916	0	0	-0.176904	-0.431202	-0.106184	1.01045	1.5655	0	0
0.58	2.92536	1.22387	-1.21557	0.57764	0.230487	0.966055	0.0769874	-0.107906	-0.338918	0.863777	-0.27553	0	0	-0.460143	-0.113484	-0.341234	0.231989	-0.1901	0	0	-0.490894	0.118102	-0.301639	0.204056	-0.66081	1.27491	0.827591	0.306129	0	0	-0.164663	-0.43295	-0.105378	1.01587	1.56611	0	0
0.59	2.92076	1.22301	-1.20871	0.577827	0.239438	0.965588	0.0740941	-0.099971	-0.343526	0.788302	-0.28972	0	0	-0.475994	-0.116655	-0.339649	0.222204	-0.188284	0	0	-0.493412	0.12128	-0.301554	0.208137	-0.659386	1.27835	0.826481	0.302763	0	0	-0.152693	-0.434463	-0.10461	1.02126	1.56701	0	0
0.6	2.91768	1.22392	-1.20302	0.57814	0.248562	0.964861	0.0693071	-0.0921533	-0.346127	0.705896	-0.306283	0	0	-0.490075	-0.119097	-0.337391	0.212877	-0.18617	0	0	-0.494009	0.123192	-0.301806	0.210544	-0.657141	1.28015	0.824529	0.300077	0	0	-0.141206	-0.435722	-0.103914	1.02646	1.56793	0	0
0.61	2.91636	1.22584	-1.19903	0.57857	0.257811	0.96391	0.0621259	-0.0841729	-0.347685	0.618829	-0.32161	0	0	-0.503176	-0.12086	-0.335479	0.203884	-0.184155	0	0	-0.493642	0.124008	-0.302213	0.211948	-0.654679	1.28099	0.822554	0.298345	0	0	-0.13039	-0.436893	-0.103115	1.03204	1.56869	0	0
0.62	2.91643	1.2287	-1.19636	0.579136	0.267168	0.962725	0.0523204	-0.0756391	-0.346708	0.52555	-0.335994	0	0	-0.514903	-0.122285	-0.333794	0.196027	-0.182151	0	0	-0.492416	0.123918	-0.302831	0.212542	-0.652275	1.28096	0.821085	0.297339	0	0	-0.120185	-0.438	-0.102254	1.03802	1.57012	0	0
0.63	2.91709	1.23322	-1.19433	0.579831	0.276672	0.961224	0.0410597	-0.0669647	-0.34124	0.426286	-0.349181	0	0	-0.523599	-0.12342	-0.331788	0.190037	-0.179541	0	0	-0.489309	0.122842	-0.303653	0.212113	-0.649912	1.28011	0.820063	0.296934	0	0	-0.110857	-0.438992	-0.101206	1.04409	1.5708	0	0
0.64	2.9167	1.2409	-1.19232	0.580733	0.2866	0.959251	0.0307977	-0.0589541	-0.330899	0.323574	-0.361987	0	0	-0.523599	-0.12375	-0.329956	0.186017	-0.17574	0	0	-0.482283	0.120296	-0.304082	0.210074	-0.64773	1.2786	0.819329	0.29716	0	0	-0.103435	-0.439575	-0.10011	1.05028	1.5708	0	0
0.65	2.91901	1.2503	-1.19323	0.581835	0.296825	0.956961	0.0190909	-0.0525642	-0.315191	0.217576	-0.380126	0	0	-0.523599	-0.123096	-0.328755	0.184114	-0.170433	0	0	-0.473025	0.115753	-0.304857	0.206418	-0.645101	1.2759	0.818475	0.297941	0	0	-0.0975733	-0.440167	-0.0991324	1.05675	1.5708	0	0
0.66	2.92464	1.26142	-1.19771	0.583078	0.307291	0.954388	0.00725312	-0.0488737	-0.294853	0.113975	-0.401886	0	0	-0.523599	-0.12113	-0.328016	0.184207	-0.164199	0	0	-0.461774	0.109309	-0.306054	0.201419	-0.642294	1.27212	0.817787	0.299307	0	0	-0.0931895	-0.440402	-0.098701	1.06351	1.5708	0	0
0.67	2.93329	1.27295	-1.20534	0.584385	0.317957	0.951674	-0.00538107	-0.0474444	-0.274933	0.0168087	-0.424357	0	0	-0.523599	-0.118345	-0.327883	0.185635	-0.157614	0	0	-0.449963	0.101788	-0.307473	0.195448	-0.6396	1.26733	0.817581	0.301192	0	0	-0.0902325	-0.439685	-0.0997145	1.0709	1.5708	0	0
0.68	2.94358	1.28562	-1.21568	0.585686	0.328572	0.948854	-0.0081906	-0.0503979	-0.26773	0	-0.444611	0	0	-0.523599	-0.11425	-0.327849	0.188907	-0.148782	0	0	-0.437713	0.0934362	-0.308556	0.188648	-0.636386	1.25897	0.816744	0.305687	0	0	-0.0885306	-0.437664	-0.102444	1.07903	1.5708	0	0
0.69	2.95226	1.298	-1.22394	0.586972	0.339208	0.946158	-0.00790984	-0.0537565	-0.265642	0	-0.439666	0	0	-0.523599	-0.111424	-0.32654	0.19393	-0.141223	0	0	-0.425854	0.0861779	-0.309545	0.179677	-0.632561	1.24513	0.815329	0.315486	0	0	-0.0871105	-0.435405	-0.104663	1.08659	1.5708	0	0
0.7	2.95938	1.30842	-1.22969	0.588249	0.349905	0.943717	-0.00759373	-0.0560252	-0.266858	0	-0.42206	0	0	-0.523599	-0.110853	-0.32536	0.201036	-0.13592	0	0	-0.415891	0.0806631	-0.310419	0.169669	-0.628999	1.22874	0.814725	0.326727	0	0	-0.0852881	-0.433637	-0.104907	1.0933	1.56934	0	0
0.71	2.96477	1.31559	-1.2325	0.589441	0.360626	0.941666	-0.00806813	-0.0567944	-0.27326	0	-0.402906	0	0	-0.523599	-0.112965	-0.324904	0.210385	-0.132088	0	0	-0.409108	0.0774108	-0.312154	0.161483	-0.625757	1.21487	0.814656	0.336745	0	0	-0.0842733	-0.431893	-0.104972	1.10037	1.5663	0	0
0.72	2.96803	1.31918	-1.23194	0.590473	0.371391	0.940053	-0.00959987	-0.0556872	-0.285785	0	-0.390093	0	0	-0.523599	-0.117794	-0.325576	0.221683	-0.129715	0	0	-0.405798	0.0769439	-0.314917	0.155461	-0.623661	1.20432	0.816107	0.344358	0	0	-0.0840805	-0.429351	-0.105624	1.10764	1.56292	0	0
0.73	2.96711	1.31991	-1.22682	0.591502	0.382268	0.938803	-0.0110713	-0.0524963	-0.297612	0	-0.390125	0	0	-0.523599	-0.125066	-0.327769	0.233811	-0.129112	0	0	-0.40478	0.0789305	-0.317947	0.15262	-0.622447	1.20039	0.818366	0.34634	0	0	-0.0846394	-0.42631	-0.106672	1.11431	1.55738	0	0
0.74	2.96249	1.3187	-1.21811	0.592557	0.393253	0.937847	-0.01249	-0.0474839	-0.304631	0	-0.397618	0	0	-0.523599	-0.133928	-0.330733	0.246554	-0.129516	0	0	-0.405386	0.0826459	-0.321001	0.150952	-0.621218	1.19789	0.820428	0.34841	0	0	-0.0861659	-0.422754	-0.10831	1.12076	1.5498	0	0
